<?xml version="1.0" encoding="utf-8"?>
<!-- Generator: Adobe Illustrator 15.1.0, SVG Export Plug-In . SVG Version: 6.00 Build 0)  -->
<!DOCTYPE svg PUBLIC "-//W3C//DTD SVG 1.1//EN" "http://www.w3.org/Graphics/SVG/1.1/DTD/svg11.dtd" [
	<!ENTITY ns_flows "http://ns.adobe.com/Flows/1.0/">
	<!ENTITY ns_extend "http://ns.adobe.com/Extensibility/1.0/">
	<!ENTITY ns_ai "http://ns.adobe.com/AdobeIllustrator/10.0/">
	<!ENTITY ns_graphs "http://ns.adobe.com/Graphs/1.0/">
]>
<svg version="1.1" id="Ebene_1" xmlns:x="&ns_extend;" xmlns:i="&ns_ai;" xmlns:graph="&ns_graphs;"
	 xmlns="http://www.w3.org/2000/svg" xmlns:xlink="http://www.w3.org/1999/xlink" xmlns:a="http://ns.adobe.com/AdobeSVGViewerExtensions/3.0/"
	 x="0px" y="0px" width="62.062px" height="70.483px" viewBox="0 0 62.062 70.483" enable-background="new 0 0 62.062 70.483"
	 xml:space="preserve">
<path fill="#FFFFFF" d="M62.054,40.973c-0.095-0.539-0.946-0.897-1.114-0.871l-14.107,2.39c-0.016,0.004-0.031,0.014-0.044,0.026
	l-12.26-6.854l12.432-7.761l13.911,2.551c0.169,0.03,1.012-0.266,1.111-0.805c0.097-0.539-0.585-1.121-0.753-1.15L50.426,25.56
	l10.631-5.966c0.693-0.401,0.93-1.282,0.529-1.979c-0.401-0.69-1.283-0.927-1.978-0.526l-10.737,6.028l3.563-10.414
	c0.062-0.161-0.04-1.029-0.554-1.223c-0.516-0.188-1.252,0.368-1.311,0.529l-5.188,13.411c-0.006,0.016-0.005,0.033-0.002,0.049
	l-12.514,6.682l-0.402-14.446l8.789-10.959c0.109-0.131,0.273-1.009-0.151-1.364c-0.42-0.352-1.263-0.046-1.37,0.085l-7.268,8.336
	V1.45c0-0.802-0.646-1.45-1.449-1.45C30.22,0,29.57,0.647,29.57,1.45v12.3L21.958,5.89c-0.107-0.128-0.914-0.473-1.333-0.122
	c-0.419,0.355-0.298,1.272-0.188,1.4l9.132,10.485l-0.403,14.486l-12.55-6.703l-4.895-13.444c-0.058-0.161-0.739-0.739-1.256-0.549
	c-0.517,0.188-0.67,1.072-0.612,1.229l3.274,10.407L2.482,17.105c-0.692-0.401-1.578-0.161-1.977,0.529
	c-0.4,0.693-0.163,1.578,0.53,1.976l10.602,5.949L0.779,28.426c-0.164,0.029-0.866,0.552-0.771,1.094
	c0.094,0.539,0.951,0.894,1.119,0.865l13.997-2.469l12.406,7.745L15.208,42.55l-14.088-2.48c-0.165-0.03-1.007,0.27-1.104,0.811
	c-0.092,0.543,0.594,1.118,0.759,1.148l10.945,2.879L1.075,50.883c-0.689,0.401-0.929,1.285-0.528,1.976
	c0.399,0.693,1.285,0.93,1.976,0.529l10.603-5.949l-3.246,10.32c-0.058,0.158,0.049,1.029,0.565,1.217
	c0.515,0.19,1.246-0.378,1.305-0.535l4.863-13.359l12.554-6.702l0.403,14.443l-9.568,10.774c-0.108,0.129-0.275,1.006,0.146,1.361
	c0.415,0.358,1.262,0.056,1.372-0.072l8.051-8.185v12.336c0,0.799,0.65,1.446,1.447,1.446c0.803,0,1.449-0.647,1.449-1.446V56.573
	l8.037,8.414c0.107,0.132,0.911,0.483,1.335,0.132c0.423-0.349,0.306-1.269,0.196-1.397l-9.524-11.024
	c-0.013-0.013-0.028-0.02-0.044-0.029l0.402-14.306l12.605,6.735l4.748,13.608c0.055,0.161,0.734,0.742,1.25,0.559
	c0.519-0.184,0.68-1.068,0.623-1.227l-3.156-10.6l10.633,5.969c0.691,0.401,1.573,0.161,1.975-0.529
	c0.399-0.693,0.164-1.578-0.529-1.975l-10.742-6.032l10.999-2.808C61.44,42.034,62.145,41.515,62.054,40.973z"/>
</svg>
